<svg width="19" height="15" viewBox="0 0 19 15" fill="none" xmlns="http://www.w3.org/2000/svg">
<path d="M11.577 8.23075H16.1152V6.73075H11.577V8.23075ZM11.577 5.34625H16.1152V3.84625H11.577V5.34625ZM2.88475 11.1538H10.1923V10.7963C10.1923 10.1296 9.86242 9.60583 9.20275 9.225C8.54325 8.84417 7.65517 8.65375 6.5385 8.65375C5.42183 8.65375 4.53367 8.84417 3.874 9.225C3.2145 9.60583 2.88475 10.1296 2.88475 10.7963V11.1538ZM6.5385 7.34625C7.02433 7.34625 7.43742 7.176 7.77775 6.8355C8.11825 6.49517 8.2885 6.08208 8.2885 5.59625C8.2885 5.11025 8.11825 4.69708 7.77775 4.35675C7.43742 4.01642 7.02433 3.84625 6.5385 3.84625C6.05267 3.84625 5.6395 4.01642 5.299 4.35675C4.95867 4.69708 4.7885 5.11025 4.7885 5.59625C4.7885 6.08208 4.95867 6.49517 5.299 6.8355C5.6395 7.176 6.05267 7.34625 6.5385 7.34625ZM1.80775 15C1.30258 15 0.875 14.825 0.525 14.475C0.175 14.125 0 13.6974 0 13.1923V1.80775C0 1.30258 0.175 0.875 0.525 0.525C0.875 0.175 1.30258 0 1.80775 0H17.1923C17.6974 0 18.125 0.175 18.475 0.525C18.825 0.875 19 1.30258 19 1.80775V13.1923C19 13.6974 18.825 14.125 18.475 14.475C18.125 14.825 17.6974 15 17.1923 15H1.80775Z" fill="#FF2C61"/>
</svg>
