<?xml version="1.0" encoding="UTF-8"?>
<svg version="1.1" xmlns="http://www.w3.org/2000/svg" width="48" height="48">
<path d="M0 0 C23.4375 -1.20535714 23.4375 -1.20535714 28.9375 3.6875 C33.2091396 9.28173931 32.84189249 15.2752538 32 22 C31.34 22 30.68 22 30 22 C30 18.7 30 15.4 30 12 C26.7 12 23.4 12 20 12 C20 8.7 20 5.4 20 2 C14.06 2 8.12 2 2 2 C2 8.6 2 15.2 2 22 C1.34 22 0.68 22 0 22 C0 14.74 0 7.48 0 0 Z M22 5 C22 6.65 22 8.3 22 10 C23.65 10 25.3 10 27 10 C25.35 8.35 23.7 6.7 22 5 Z " fill="#000000" transform="translate(8,4)"/>
<path d="M0 0 C2.875 0.9375 2.875 0.9375 4.25 3 C4.45625 3.639375 4.6625 4.27875 4.875 4.9375 C2.20833333 4.9375 -0.45833333 4.9375 -3.125 4.9375 C-3.125 7.5775 -3.125 10.2175 -3.125 12.9375 C-1.475 13.2675 0.175 13.5975 1.875 13.9375 C1.875 13.2775 1.875 12.6175 1.875 11.9375 C0.885 11.9375 -0.105 11.9375 -1.125 11.9375 C-1.125 10.9475 -1.125 9.9575 -1.125 8.9375 C0.855 8.9375 2.835 8.9375 4.875 8.9375 C5.125 11.75 5.125 11.75 4.875 14.9375 C3.25 16.875 3.25 16.875 0.875 17.9375 C-2.79793796 17.71712372 -4.49466546 17.56783454 -7.125 14.9375 C-7.4609375 12.22265625 -7.4609375 12.22265625 -7.5 9 C-7.52835938 7.93910156 -7.55671875 6.87820312 -7.5859375 5.78515625 C-7.125 2.9375 -7.125 2.9375 -5.296875 1.0546875 C-3.125 -0.0625 -3.125 -0.0625 0 0 Z " fill="#000000" transform="translate(37.125,27.0625)"/>
<path d="M0 0 C2.875 0.875 2.875 0.875 4.875 2.875 C5.2109375 5.58984375 5.2109375 5.58984375 5.25 8.8125 C5.27835938 9.87339844 5.30671875 10.93429688 5.3359375 12.02734375 C4.875 14.875 4.875 14.875 3.046875 16.76171875 C-0.03595107 18.34194434 -1.8680785 17.86623698 -5.125 16.875 C-7.95160904 12.63508644 -7.77560387 8.85211962 -7.125 3.875 C-4.98317683 0.33275399 -4.14117017 -0.16564681 0 0 Z M-2.125 2.875 C-4.30831689 4.63636355 -4.30831689 4.63636355 -4.3203125 6.8203125 C-4.28550781 7.89925781 -4.28550781 7.89925781 -4.25 9 C-4.20875 10.27875 -4.1675 11.5575 -4.125 12.875 C-2.145 13.865 -2.145 13.865 -0.125 14.875 C2.05831689 13.11363645 2.05831689 13.11363645 2.0703125 10.9296875 C2.04710937 10.21039063 2.02390625 9.49109375 2 8.75 C1.95875 7.47125 1.9175 6.1925 1.875 4.875 C0.555 4.215 -0.765 3.555 -2.125 2.875 Z " fill="#000000" transform="translate(23.125,27.125)"/>
<path d="M0 0 C0.66 0 1.32 0 2 0 C2 4.62 2 9.24 2 14 C4.64 14 7.28 14 10 14 C10 14.66 10 15.32 10 16 C6.7 16 3.4 16 0 16 C0 10.72 0 5.44 0 0 Z " fill="#000000" transform="translate(6,28)"/>
</svg>
